<mxfile host="app.diagrams.net" agent="Mozilla/5.0 (Windows NT 10.0; Win64; x64; rv:137.0) Gecko/20100101 Firefox/137.0" version="26.1.0">
  <diagram name="Page-1" id="rXOFLkJJT_3y2DYU8gl2">
    <mxGraphModel dx="1434" dy="1875" grid="1" gridSize="10" guides="1" tooltips="1" connect="1" arrows="1" fold="1" page="1" pageScale="1" pageWidth="850" pageHeight="1100" math="0" shadow="0">
      <root>
        <mxCell id="0" />
        <mxCell id="1" parent="0" />
        <mxCell id="hTT6Z1bvtSNVrnMEpqbX-4" value="Assembly" style="rounded=1;arcSize=10;whiteSpace=wrap;html=1;align=center;" vertex="1" parent="1">
          <mxGeometry x="750" y="590" width="100" height="40" as="geometry" />
        </mxCell>
        <mxCell id="hTT6Z1bvtSNVrnMEpqbX-5" value="Part" style="rounded=1;arcSize=10;whiteSpace=wrap;html=1;align=center;" vertex="1" parent="1">
          <mxGeometry x="550" y="670" width="100" height="40" as="geometry" />
        </mxCell>
        <mxCell id="hTT6Z1bvtSNVrnMEpqbX-6" value="Material" style="rounded=1;arcSize=10;whiteSpace=wrap;html=1;align=center;" vertex="1" parent="1">
          <mxGeometry x="300" y="630" width="100" height="40" as="geometry" />
        </mxCell>
        <mxCell id="hTT6Z1bvtSNVrnMEpqbX-23" value="" style="group" vertex="1" connectable="0" parent="1">
          <mxGeometry x="100" y="-160" width="460" height="240" as="geometry" />
        </mxCell>
        <mxCell id="hTT6Z1bvtSNVrnMEpqbX-3" value="&lt;div&gt;Organization&lt;/div&gt;" style="rounded=1;arcSize=10;whiteSpace=wrap;html=1;align=center;" vertex="1" parent="hTT6Z1bvtSNVrnMEpqbX-23">
          <mxGeometry x="220" y="200" width="100" height="40" as="geometry" />
        </mxCell>
        <mxCell id="hTT6Z1bvtSNVrnMEpqbX-7" value="Type" style="ellipse;whiteSpace=wrap;html=1;align=center;" vertex="1" parent="hTT6Z1bvtSNVrnMEpqbX-23">
          <mxGeometry x="360" y="200" width="100" height="40" as="geometry" />
        </mxCell>
        <mxCell id="hTT6Z1bvtSNVrnMEpqbX-8" value="Name" style="ellipse;whiteSpace=wrap;html=1;align=center;" vertex="1" parent="hTT6Z1bvtSNVrnMEpqbX-23">
          <mxGeometry x="330" y="120" width="100" height="40" as="geometry" />
        </mxCell>
        <mxCell id="hTT6Z1bvtSNVrnMEpqbX-9" value="Billing Info" style="ellipse;whiteSpace=wrap;html=1;align=center;" vertex="1" parent="hTT6Z1bvtSNVrnMEpqbX-23">
          <mxGeometry x="140" y="120" width="100" height="40" as="geometry" />
        </mxCell>
        <mxCell id="hTT6Z1bvtSNVrnMEpqbX-10" value="OrgID" style="ellipse;whiteSpace=wrap;html=1;align=center;fontStyle=4" vertex="1" parent="hTT6Z1bvtSNVrnMEpqbX-23">
          <mxGeometry x="80" y="200" width="100" height="40" as="geometry" />
        </mxCell>
        <mxCell id="hTT6Z1bvtSNVrnMEpqbX-11" value="Email" style="ellipse;whiteSpace=wrap;html=1;align=center;" vertex="1" parent="hTT6Z1bvtSNVrnMEpqbX-23">
          <mxGeometry x="170" width="100" height="40" as="geometry" />
        </mxCell>
        <mxCell id="hTT6Z1bvtSNVrnMEpqbX-12" value="Address" style="ellipse;whiteSpace=wrap;html=1;align=center;" vertex="1" parent="hTT6Z1bvtSNVrnMEpqbX-23">
          <mxGeometry x="240" y="50" width="100" height="40" as="geometry" />
        </mxCell>
        <mxCell id="hTT6Z1bvtSNVrnMEpqbX-13" value="Contact" style="ellipse;whiteSpace=wrap;html=1;align=center;" vertex="1" parent="hTT6Z1bvtSNVrnMEpqbX-23">
          <mxGeometry x="50" y="20" width="100" height="40" as="geometry" />
        </mxCell>
        <mxCell id="hTT6Z1bvtSNVrnMEpqbX-14" value="Credit Card #" style="ellipse;whiteSpace=wrap;html=1;align=center;" vertex="1" parent="hTT6Z1bvtSNVrnMEpqbX-23">
          <mxGeometry y="90" width="100" height="40" as="geometry" />
        </mxCell>
        <mxCell id="hTT6Z1bvtSNVrnMEpqbX-15" value="" style="endArrow=none;html=1;rounded=0;exitX=1;exitY=0.5;exitDx=0;exitDy=0;entryX=0;entryY=0.5;entryDx=0;entryDy=0;" edge="1" parent="hTT6Z1bvtSNVrnMEpqbX-23" source="hTT6Z1bvtSNVrnMEpqbX-14" target="hTT6Z1bvtSNVrnMEpqbX-9">
          <mxGeometry width="50" height="50" relative="1" as="geometry">
            <mxPoint x="130" y="20" as="sourcePoint" />
            <mxPoint x="180" y="-30" as="targetPoint" />
          </mxGeometry>
        </mxCell>
        <mxCell id="hTT6Z1bvtSNVrnMEpqbX-16" value="" style="endArrow=none;html=1;rounded=0;exitX=0.5;exitY=1;exitDx=0;exitDy=0;entryX=0.5;entryY=0;entryDx=0;entryDy=0;" edge="1" parent="hTT6Z1bvtSNVrnMEpqbX-23" source="hTT6Z1bvtSNVrnMEpqbX-13" target="hTT6Z1bvtSNVrnMEpqbX-9">
          <mxGeometry width="50" height="50" relative="1" as="geometry">
            <mxPoint x="90" y="-20" as="sourcePoint" />
            <mxPoint x="140" y="-70" as="targetPoint" />
          </mxGeometry>
        </mxCell>
        <mxCell id="hTT6Z1bvtSNVrnMEpqbX-17" value="" style="endArrow=none;html=1;rounded=0;exitX=0.5;exitY=0;exitDx=0;exitDy=0;entryX=0.5;entryY=1;entryDx=0;entryDy=0;" edge="1" parent="hTT6Z1bvtSNVrnMEpqbX-23" source="hTT6Z1bvtSNVrnMEpqbX-9" target="hTT6Z1bvtSNVrnMEpqbX-11">
          <mxGeometry width="50" height="50" relative="1" as="geometry">
            <mxPoint x="300" as="sourcePoint" />
            <mxPoint x="350" y="-50" as="targetPoint" />
          </mxGeometry>
        </mxCell>
        <mxCell id="hTT6Z1bvtSNVrnMEpqbX-18" value="" style="endArrow=none;html=1;rounded=0;exitX=1;exitY=0;exitDx=0;exitDy=0;entryX=0.5;entryY=1;entryDx=0;entryDy=0;" edge="1" parent="hTT6Z1bvtSNVrnMEpqbX-23" source="hTT6Z1bvtSNVrnMEpqbX-9" target="hTT6Z1bvtSNVrnMEpqbX-12">
          <mxGeometry width="50" height="50" relative="1" as="geometry">
            <mxPoint x="360" y="60" as="sourcePoint" />
            <mxPoint x="290" y="110" as="targetPoint" />
          </mxGeometry>
        </mxCell>
        <mxCell id="hTT6Z1bvtSNVrnMEpqbX-19" value="" style="endArrow=none;html=1;rounded=0;exitX=1;exitY=0.5;exitDx=0;exitDy=0;entryX=0;entryY=0.5;entryDx=0;entryDy=0;" edge="1" parent="hTT6Z1bvtSNVrnMEpqbX-23" source="hTT6Z1bvtSNVrnMEpqbX-10" target="hTT6Z1bvtSNVrnMEpqbX-3">
          <mxGeometry width="50" height="50" relative="1" as="geometry">
            <mxPoint x="160" y="310" as="sourcePoint" />
            <mxPoint x="210" y="260" as="targetPoint" />
          </mxGeometry>
        </mxCell>
        <mxCell id="hTT6Z1bvtSNVrnMEpqbX-20" value="" style="endArrow=none;html=1;rounded=0;exitX=0.5;exitY=1;exitDx=0;exitDy=0;entryX=0.5;entryY=0;entryDx=0;entryDy=0;" edge="1" parent="hTT6Z1bvtSNVrnMEpqbX-23" source="hTT6Z1bvtSNVrnMEpqbX-9" target="hTT6Z1bvtSNVrnMEpqbX-3">
          <mxGeometry width="50" height="50" relative="1" as="geometry">
            <mxPoint x="290" y="160" as="sourcePoint" />
            <mxPoint x="340" y="110" as="targetPoint" />
          </mxGeometry>
        </mxCell>
        <mxCell id="hTT6Z1bvtSNVrnMEpqbX-21" value="" style="endArrow=none;html=1;rounded=0;exitX=0.5;exitY=0;exitDx=0;exitDy=0;entryX=0.5;entryY=1;entryDx=0;entryDy=0;" edge="1" parent="hTT6Z1bvtSNVrnMEpqbX-23" source="hTT6Z1bvtSNVrnMEpqbX-3" target="hTT6Z1bvtSNVrnMEpqbX-8">
          <mxGeometry width="50" height="50" relative="1" as="geometry">
            <mxPoint x="430" y="130" as="sourcePoint" />
            <mxPoint x="480" y="80" as="targetPoint" />
          </mxGeometry>
        </mxCell>
        <mxCell id="hTT6Z1bvtSNVrnMEpqbX-22" value="" style="endArrow=none;html=1;rounded=0;exitX=1;exitY=0.5;exitDx=0;exitDy=0;entryX=0;entryY=0.5;entryDx=0;entryDy=0;" edge="1" parent="hTT6Z1bvtSNVrnMEpqbX-23" source="hTT6Z1bvtSNVrnMEpqbX-3" target="hTT6Z1bvtSNVrnMEpqbX-7">
          <mxGeometry width="50" height="50" relative="1" as="geometry">
            <mxPoint x="260" y="350" as="sourcePoint" />
            <mxPoint x="310" y="300" as="targetPoint" />
          </mxGeometry>
        </mxCell>
        <mxCell id="hTT6Z1bvtSNVrnMEpqbX-38" value="" style="group" vertex="1" connectable="0" parent="1">
          <mxGeometry x="950" y="110" width="345" height="220" as="geometry" />
        </mxCell>
        <mxCell id="hTT6Z1bvtSNVrnMEpqbX-2" value="User" style="rounded=1;arcSize=10;whiteSpace=wrap;html=1;align=center;" vertex="1" parent="hTT6Z1bvtSNVrnMEpqbX-38">
          <mxGeometry y="120" width="100" height="40" as="geometry" />
        </mxCell>
        <mxCell id="hTT6Z1bvtSNVrnMEpqbX-24" value="UserId" style="ellipse;whiteSpace=wrap;html=1;align=center;fontStyle=4;" vertex="1" parent="hTT6Z1bvtSNVrnMEpqbX-38">
          <mxGeometry x="135" y="120" width="100" height="40" as="geometry" />
        </mxCell>
        <mxCell id="hTT6Z1bvtSNVrnMEpqbX-25" value="Name" style="ellipse;whiteSpace=wrap;html=1;align=center;" vertex="1" parent="hTT6Z1bvtSNVrnMEpqbX-38">
          <mxGeometry x="120" y="50" width="100" height="40" as="geometry" />
        </mxCell>
        <mxCell id="hTT6Z1bvtSNVrnMEpqbX-27" value="Fname" style="ellipse;whiteSpace=wrap;html=1;align=center;" vertex="1" parent="hTT6Z1bvtSNVrnMEpqbX-38">
          <mxGeometry x="245" width="100" height="40" as="geometry" />
        </mxCell>
        <mxCell id="hTT6Z1bvtSNVrnMEpqbX-28" value="Lname" style="ellipse;whiteSpace=wrap;html=1;align=center;" vertex="1" parent="hTT6Z1bvtSNVrnMEpqbX-38">
          <mxGeometry x="245" y="50" width="100" height="40" as="geometry" />
        </mxCell>
        <mxCell id="hTT6Z1bvtSNVrnMEpqbX-29" value="" style="endArrow=none;html=1;rounded=0;exitX=0.5;exitY=0;exitDx=0;exitDy=0;entryX=0;entryY=0.5;entryDx=0;entryDy=0;" edge="1" parent="hTT6Z1bvtSNVrnMEpqbX-38" source="hTT6Z1bvtSNVrnMEpqbX-25" target="hTT6Z1bvtSNVrnMEpqbX-27">
          <mxGeometry width="50" height="50" relative="1" as="geometry">
            <mxPoint x="100" y="-40" as="sourcePoint" />
            <mxPoint x="150" y="-90" as="targetPoint" />
          </mxGeometry>
        </mxCell>
        <mxCell id="hTT6Z1bvtSNVrnMEpqbX-30" value="" style="endArrow=none;html=1;rounded=0;exitX=1;exitY=0.5;exitDx=0;exitDy=0;entryX=0;entryY=0.5;entryDx=0;entryDy=0;" edge="1" parent="hTT6Z1bvtSNVrnMEpqbX-38" source="hTT6Z1bvtSNVrnMEpqbX-25" target="hTT6Z1bvtSNVrnMEpqbX-28">
          <mxGeometry width="50" height="50" relative="1" as="geometry">
            <mxPoint x="270" y="160" as="sourcePoint" />
            <mxPoint x="320" y="110" as="targetPoint" />
          </mxGeometry>
        </mxCell>
        <mxCell id="hTT6Z1bvtSNVrnMEpqbX-31" value="" style="endArrow=none;html=1;rounded=0;exitX=0;exitY=0.5;exitDx=0;exitDy=0;entryX=1;entryY=0.5;entryDx=0;entryDy=0;" edge="1" parent="hTT6Z1bvtSNVrnMEpqbX-38" source="hTT6Z1bvtSNVrnMEpqbX-24" target="hTT6Z1bvtSNVrnMEpqbX-2">
          <mxGeometry width="50" height="50" relative="1" as="geometry">
            <mxPoint x="140" y="290" as="sourcePoint" />
            <mxPoint x="190" y="240" as="targetPoint" />
          </mxGeometry>
        </mxCell>
        <mxCell id="hTT6Z1bvtSNVrnMEpqbX-32" value="" style="endArrow=none;html=1;rounded=0;exitX=0.5;exitY=0;exitDx=0;exitDy=0;entryX=0;entryY=0.5;entryDx=0;entryDy=0;" edge="1" parent="hTT6Z1bvtSNVrnMEpqbX-38" source="hTT6Z1bvtSNVrnMEpqbX-2" target="hTT6Z1bvtSNVrnMEpqbX-25">
          <mxGeometry width="50" height="50" relative="1" as="geometry">
            <mxPoint x="30" y="20" as="sourcePoint" />
            <mxPoint x="80" y="-30" as="targetPoint" />
          </mxGeometry>
        </mxCell>
        <mxCell id="hTT6Z1bvtSNVrnMEpqbX-36" value="Email" style="ellipse;whiteSpace=wrap;html=1;align=center;" vertex="1" parent="hTT6Z1bvtSNVrnMEpqbX-38">
          <mxGeometry x="120" y="180" width="100" height="40" as="geometry" />
        </mxCell>
        <mxCell id="hTT6Z1bvtSNVrnMEpqbX-37" value="" style="endArrow=none;html=1;rounded=0;exitX=0;exitY=0.5;exitDx=0;exitDy=0;entryX=0.5;entryY=1;entryDx=0;entryDy=0;" edge="1" parent="hTT6Z1bvtSNVrnMEpqbX-38" source="hTT6Z1bvtSNVrnMEpqbX-36" target="hTT6Z1bvtSNVrnMEpqbX-2">
          <mxGeometry width="50" height="50" relative="1" as="geometry">
            <mxPoint y="250" as="sourcePoint" />
            <mxPoint x="50" y="200" as="targetPoint" />
          </mxGeometry>
        </mxCell>
        <mxCell id="hTT6Z1bvtSNVrnMEpqbX-45" value="Project Collaboration" style="shape=rhombus;perimeter=rhombusPerimeter;whiteSpace=wrap;html=1;align=center;" vertex="1" parent="1">
          <mxGeometry x="540" y="270" width="160" height="60" as="geometry" />
        </mxCell>
        <mxCell id="hTT6Z1bvtSNVrnMEpqbX-46" value="" style="endArrow=none;html=1;rounded=0;exitX=1;exitY=0.5;exitDx=0;exitDy=0;entryX=0;entryY=1;entryDx=0;entryDy=0;fillColor=#a20025;strokeColor=#6F0000;" edge="1" parent="1" source="hTT6Z1bvtSNVrnMEpqbX-1" target="hTT6Z1bvtSNVrnMEpqbX-45">
          <mxGeometry width="50" height="50" relative="1" as="geometry">
            <mxPoint x="590" y="340" as="sourcePoint" />
            <mxPoint x="640" y="290" as="targetPoint" />
          </mxGeometry>
        </mxCell>
        <mxCell id="hTT6Z1bvtSNVrnMEpqbX-47" value="" style="endArrow=none;html=1;rounded=0;exitX=0.5;exitY=1;exitDx=0;exitDy=0;entryX=0;entryY=0;entryDx=0;entryDy=0;fillColor=#a20025;strokeColor=#6F0000;" edge="1" parent="1" source="hTT6Z1bvtSNVrnMEpqbX-3" target="hTT6Z1bvtSNVrnMEpqbX-45">
          <mxGeometry width="50" height="50" relative="1" as="geometry">
            <mxPoint x="480" y="160" as="sourcePoint" />
            <mxPoint x="530" y="110" as="targetPoint" />
          </mxGeometry>
        </mxCell>
        <mxCell id="hTT6Z1bvtSNVrnMEpqbX-48" value="" style="endArrow=none;html=1;rounded=0;exitX=1;exitY=0.5;exitDx=0;exitDy=0;entryX=0;entryY=0.5;entryDx=0;entryDy=0;fillColor=#a20025;strokeColor=#6F0000;" edge="1" parent="1" source="hTT6Z1bvtSNVrnMEpqbX-45" target="hTT6Z1bvtSNVrnMEpqbX-2">
          <mxGeometry width="50" height="50" relative="1" as="geometry">
            <mxPoint x="820" y="340" as="sourcePoint" />
            <mxPoint x="870" y="290" as="targetPoint" />
          </mxGeometry>
        </mxCell>
        <mxCell id="hTT6Z1bvtSNVrnMEpqbX-50" value="Org Membership" style="shape=rhombus;perimeter=rhombusPerimeter;whiteSpace=wrap;html=1;align=center;" vertex="1" parent="1">
          <mxGeometry x="640" y="130" width="120" height="60" as="geometry" />
        </mxCell>
        <mxCell id="hTT6Z1bvtSNVrnMEpqbX-51" value="" style="group" vertex="1" connectable="0" parent="1">
          <mxGeometry x="190" y="290" width="235" height="180" as="geometry" />
        </mxCell>
        <mxCell id="hTT6Z1bvtSNVrnMEpqbX-1" value="&lt;div&gt;Project&lt;/div&gt;" style="rounded=1;arcSize=10;whiteSpace=wrap;html=1;align=center;" vertex="1" parent="hTT6Z1bvtSNVrnMEpqbX-51">
          <mxGeometry x="135" y="70" width="100" height="40" as="geometry" />
        </mxCell>
        <mxCell id="hTT6Z1bvtSNVrnMEpqbX-39" value="ProjectID" style="ellipse;whiteSpace=wrap;html=1;align=center;fontStyle=4;" vertex="1" parent="hTT6Z1bvtSNVrnMEpqbX-51">
          <mxGeometry y="70" width="100" height="40" as="geometry" />
        </mxCell>
        <mxCell id="hTT6Z1bvtSNVrnMEpqbX-40" value="" style="endArrow=none;html=1;rounded=0;exitX=1;exitY=0.5;exitDx=0;exitDy=0;entryX=0;entryY=0.5;entryDx=0;entryDy=0;" edge="1" parent="hTT6Z1bvtSNVrnMEpqbX-51" source="hTT6Z1bvtSNVrnMEpqbX-39" target="hTT6Z1bvtSNVrnMEpqbX-1">
          <mxGeometry width="50" height="50" relative="1" as="geometry">
            <mxPoint x="120" y="10" as="sourcePoint" />
            <mxPoint x="170" y="-40" as="targetPoint" />
          </mxGeometry>
        </mxCell>
        <mxCell id="hTT6Z1bvtSNVrnMEpqbX-41" value="Name" style="ellipse;whiteSpace=wrap;html=1;align=center;" vertex="1" parent="hTT6Z1bvtSNVrnMEpqbX-51">
          <mxGeometry x="50" y="140" width="100" height="40" as="geometry" />
        </mxCell>
        <mxCell id="hTT6Z1bvtSNVrnMEpqbX-42" value="Description" style="ellipse;whiteSpace=wrap;html=1;align=center;" vertex="1" parent="hTT6Z1bvtSNVrnMEpqbX-51">
          <mxGeometry x="50" width="100" height="40" as="geometry" />
        </mxCell>
        <mxCell id="hTT6Z1bvtSNVrnMEpqbX-43" value="" style="endArrow=none;html=1;rounded=0;exitX=1;exitY=0.5;exitDx=0;exitDy=0;entryX=0.5;entryY=0;entryDx=0;entryDy=0;" edge="1" parent="hTT6Z1bvtSNVrnMEpqbX-51" source="hTT6Z1bvtSNVrnMEpqbX-42" target="hTT6Z1bvtSNVrnMEpqbX-1">
          <mxGeometry width="50" height="50" relative="1" as="geometry">
            <mxPoint x="230" y="-20" as="sourcePoint" />
            <mxPoint x="280" y="-70" as="targetPoint" />
          </mxGeometry>
        </mxCell>
        <mxCell id="hTT6Z1bvtSNVrnMEpqbX-44" value="" style="endArrow=none;html=1;rounded=0;exitX=1;exitY=0.5;exitDx=0;exitDy=0;entryX=0.5;entryY=1;entryDx=0;entryDy=0;" edge="1" parent="hTT6Z1bvtSNVrnMEpqbX-51" source="hTT6Z1bvtSNVrnMEpqbX-41" target="hTT6Z1bvtSNVrnMEpqbX-1">
          <mxGeometry width="50" height="50" relative="1" as="geometry">
            <mxPoint x="230" y="200" as="sourcePoint" />
            <mxPoint x="280" y="150" as="targetPoint" />
          </mxGeometry>
        </mxCell>
        <mxCell id="hTT6Z1bvtSNVrnMEpqbX-52" value="" style="endArrow=none;html=1;rounded=0;exitX=0.5;exitY=1;exitDx=0;exitDy=0;entryX=0;entryY=0.5;entryDx=0;entryDy=0;fillColor=#60a917;strokeColor=#2D7600;" edge="1" parent="1" source="hTT6Z1bvtSNVrnMEpqbX-3" target="hTT6Z1bvtSNVrnMEpqbX-50">
          <mxGeometry width="50" height="50" relative="1" as="geometry">
            <mxPoint x="700" y="80" as="sourcePoint" />
            <mxPoint x="750" y="30" as="targetPoint" />
          </mxGeometry>
        </mxCell>
        <mxCell id="hTT6Z1bvtSNVrnMEpqbX-53" value="" style="endArrow=none;html=1;rounded=0;exitX=1;exitY=0.5;exitDx=0;exitDy=0;entryX=0;entryY=0.5;entryDx=0;entryDy=0;fillColor=#60a917;strokeColor=#2D7600;" edge="1" parent="1" source="hTT6Z1bvtSNVrnMEpqbX-50" target="hTT6Z1bvtSNVrnMEpqbX-2">
          <mxGeometry width="50" height="50" relative="1" as="geometry">
            <mxPoint x="840" y="70" as="sourcePoint" />
            <mxPoint x="890" y="20" as="targetPoint" />
          </mxGeometry>
        </mxCell>
        <mxCell id="hTT6Z1bvtSNVrnMEpqbX-55" value="" style="endArrow=none;html=1;rounded=0;entryX=0.5;entryY=0;entryDx=0;entryDy=0;exitX=0.5;exitY=1;exitDx=0;exitDy=0;" edge="1" parent="1" source="hTT6Z1bvtSNVrnMEpqbX-56" target="hTT6Z1bvtSNVrnMEpqbX-50">
          <mxGeometry width="50" height="50" relative="1" as="geometry">
            <mxPoint x="800" y="120" as="sourcePoint" />
            <mxPoint x="900" y="40" as="targetPoint" />
          </mxGeometry>
        </mxCell>
        <mxCell id="hTT6Z1bvtSNVrnMEpqbX-56" value="Role(s)" style="ellipse;shape=doubleEllipse;margin=3;whiteSpace=wrap;html=1;align=center;" vertex="1" parent="1">
          <mxGeometry x="650" y="60" width="100" height="40" as="geometry" />
        </mxCell>
      </root>
    </mxGraphModel>
  </diagram>
</mxfile>
